:SAMPLES-PER-SECOND 30
:FULLY-SPECIFIED
:DEGREES
249
root  13.9098 32.6849 3.29983 -22.5581 -89.7872 10.6321
RightUpLeg  -22.8342 -6.12319 -34.9418
RightLeg  49.2898 -0.966316 -1.59701
RightFoot  17.7326 -5.33734 20.9283
RightToes  -5.28226e-011 1.30204e-014 -6.03759e-014
Spine  36.3476 3.52925 10.5259
Spine1  0.0236966 9.37482 -14.3836
HEad  -20.3212 -17.8065 2.3801
LeftShoulder1  0.330644 2.18439 -17.5022
LeftArm  -22.8871 -16.0643 -48.4229
LeftForeArm  -40.2888 -34.3756 -9.60726
LeftHand  0.164934 5.94603 32.0308
RightShoulder  1.86928 2.91057 23.0066
RightArm  -20.9907 -35.4778 12.2521
RightForeArm  -46.6148 18.5684 5.60373
RightHand  -0.813592 -1.03454 -21.3478
LeftUpLeg  -15.2322 -2.16547 22.0834
LeftLeg  59.0652 -1.52907 -2.19159
LeftFoot  -26.5835 -4.10391 -31.0996
LeftToes  -2.75829e-010 5.07641e-011 -5.51782e-011
250
root  13.8773 31.3131 2.67707 178.484 -84.5227 169.355
RightUpLeg  -28.1856 -0.675883 -33.1645
RightLeg  55.5037 -2.49718 -4.24464
RightFoot  6.91688 -4.34191 26.8427
RightToes  -5.28226e-011 1.30204e-014 -6.03759e-014
Spine  36.1841 3.32267 3.23014
Spine1  -1.50627 5.24647 -7.09726
HEad  -18.7576 -3.32975 -4.82508
LeftShoulder1  1.27871 -1.13641 -21.0705
LeftArm  -32.3796 8.01408 -36.744
LeftForeArm  -32.3198 -57.2856 -19.5738
LeftHand  0.651879 7.58013 33.1998
RightShoulder  1.41997 1.89149 19.9476
RightArm  -26.6305 -16.8254 13.191
RightForeArm  -39.9622 21.8089 6.31649
RightHand  -1.19442 0.148229 -24.9151
LeftUpLeg  -13.5071 3.734 26.5434
LeftLeg  63.0694 -3.01911 -5.80848
LeftFoot  -32.4428 -5.8254 -31.5935
LeftToes  -2.75829e-010 5.07641e-011 -5.51782e-011
251
root  13.7502 30.0468 1.81318 164.392 -80.7322 -177.536
RightUpLeg  -31.1759 3.89867 -31.1833
RightLeg  61.0524 -1.03386 -2.48459
RightFoot  -2.00794 -2.65555 31.4716
RightToes  -5.28226e-011 1.30204e-014 -6.03759e-014
Spine  35.4945 2.14915 -6.58391
Spine1  -1.2054 -1.12601 3.90787
HEad  -19.7955 15.9167 -10.2281
LeftShoulder1  1.90672 -2.86579 -23.796
LeftArm  -32.0889 29.1227 -26.0375
LeftForeArm  -31.7702 -61.3765 -23.8599
LeftHand  0.980577 8.74535 32.8109
RightShoulder  0.870276 0.23088 16.6319
RightArm  -29.4706 2.31506 25.1211
RightForeArm  -35.5577 29.4085 7.95927
RightHand  -1.29171 0.328831 -25.9952
LeftUpLeg  -11.875 6.08069 32.2218
LeftLeg  67.0671 -3.71659 -8.80642
LeftFoot  -34.8392 -6.47379 -31.4111
LeftToes  -2.75829e-010 5.07641e-011 -5.51782e-011
252
root  13.7118 29.1023 0.847621 156.415 -79.4726 -171.355
RightUpLeg  -30.8909 5.57837 -29.217
RightLeg  65.3446 0.77398 1.2071
RightFoot  -9.83397 -0.535517 33.1186
RightToes  -5.28226e-011 1.30204e-014 -6.03759e-014
Spine  36.1889 1.00191 -15.4651
Spine1  0.617318 -7.45922 15.1419
HEad  -23.4099 32.4769 -14.7744
LeftShoulder1  1.8526 -3.25442 -21.0294
LeftArm  -23.5699 41.5353 -23.0223
LeftForeArm  -43.6443 -48.4861 -15.2548
LeftHand  0.678311 8.01643 29.1649
RightShoulder  0.336755 -1.9139 14.9541
RightArm  -31.5741 12.2287 41.9499
RightForeArm  -28.4458 40.5888 11.2985
RightHand  -1.07959 -0.559117 -25.6872
LeftUpLeg  -10.87 4.23342 36.4583
LeftLeg  69.571 -3.44765 -9.34073
LeftFoot  -34.9505 -6.41514 -31.0038
LeftToes  -2.75829e-010 5.07641e-011 -5.51782e-011
253
root  13.7364 28.5847 -0.0665743 149.565 -81.068 -165.161
RightUpLeg  -29.6765 2.2619 -28.2236
RightLeg  68.61 1.62065 3.83976
RightFoot  -16.2939 1.28705 31.6813
RightToes  -5.28226e-011 1.30204e-014 -6.03759e-014
Spine  36.9445 0.341435 -19.8786
Spine1  2.36762 -11.3764 22.1605
HEad  -27.4803 40.0782 -17.6379
LeftShoulder1  1.69894 -3.55864 -17.4026
LeftArm  -13.8906 40.7416 -23.5264
LeftForeArm  -50.3766 -29.7326 -8.82235
LeftHand  0.393623 7.07189 26.903
RightShoulder  0.260036 -2.36671 16.3219
RightArm  -32.1506 6.44887 51.4862
RightForeArm  -20.6526 56.9777 19.6198
RightHand  -0.842521 -1.64191 -25.8071
LeftUpLeg  -11.9458 -0.363032 37.5752
LeftLeg  69.7923 -2.78048 -7.52606
LeftFoot  -34.9952 -6.65711 -32.0231
LeftToes  -2.75829e-010 5.07641e-011 -5.51782e-011
254
root  13.6645 28.4575 -0.737071 145.123 -84.0294 -160.139
RightUpLeg  -28.8618 -4.38842 -29.0942
RightLeg  70.7424 2.31509 6.56966
RightFoot  -19.4325 2.01283 29.6339
RightToes  -5.28226e-011 1.30204e-014 -6.03759e-014
Spine  36.5584 -0.492967 -17.1657
Spine1  3.07486 -11.0235 20.6865
HEad  -28.2333 36.6194 -15.6979
LeftShoulder1  1.64339 -3.59685 -16.4264
LeftArm  -11.2752 28.7008 -21.1471
LeftForeArm  -47.1453 -14.8875 -7.88072
LeftHand  0.428541 7.12993 28.1372
RightShoulder  0.638907 -0.937755 18.4729
RightArm  -34.0998 -8.49511 50.8
RightForeArm  -11.7613 68.5551 32.0035
RightHand  -0.702535 -2.38708 -26.7659
LeftUpLeg  -13.8793 -5.78978 36.1705
LeftLeg  68.6377 -1.87039 -4.48014
LeftFoot  -34.4179 -6.98169 -34.2684
LeftToes  -2.75829e-010 5.07641e-011 -5.51782e-011
255
root  13.3996 28.6801 -1.12869 156.159 -85.261 -170.984
RightUpLeg  -28.2096 -8.8116 -31.1968
RightLeg  71.2355 3.37003 10.1541
RightFoot  -19.1288 1.84269 28.4249
RightToes  -5.28226e-011 1.30204e-014 -6.03759e-014
Spine  35.4586 -1.81623 -8.46149
Spine1  3.20603 -7.01881 9.69419
HEad  -25.9853 26.6354 -10.7178
LeftShoulder1  1.54541 -3.17406 -16.4093
LeftArm  -14.9551 16.0624 -18.3735
LeftForeArm  -39.9612 -12.1618 -8.57164
LeftHand  0.252343 6.37502 28.6808
RightShoulder  1.11672 0.822411 19.5025
RightArm  -35.6531 -23.0618 48.5001
RightForeArm  -10.9369 69.336 34.385
RightHand  -0.690862 -2.53319 -27.6416
LeftUpLeg  -12.9928 -9.31107 33.2374
LeftLeg  66.6081 -0.607586 -0.835416
LeftFoot  -32.4005 -6.709 -36.0061
LeftToes  -2.75829e-010 5.07641e-011 -5.51782e-011
256
root  12.9976 29.3131 -1.46261 -177.028 -83.1014 161.759
RightUpLeg  -27.7161 -8.25433 -33.0945
RightLeg  69.7286 4.2427 11.8754
RightFoot  -17.9298 1.49013 27.5289
RightToes  -5.28226e-011 1.30204e-014 -6.03759e-014
Spine  34.6603 -3.03421 1.88165
Spine1  2.99135 -1.63927 -6.01417
HEad  -23.306 15.9755 -7.15411
LeftShoulder1  1.22131 -2.07039 -15.0132
LeftArm  -10.1347 9.15423 -20.0269
LeftForeArm  -41.7675 -20.2146 -7.66567
LeftHand  -0.150919 4.74107 26.7718
RightShoulder  1.37863 2.07992 18.2402
RightArm  -35.6679 -32.135 49.4087
RightForeArm  -21.3303 60.8548 23.1072
RightHand  -0.833394 -1.90154 -27.3833
LeftUpLeg  -8.35579 -8.56505 29.5648
LeftLeg  62.5581 0.751544 2.20602
LeftFoot  -29.5978 -6.08627 -37.6796
LeftToes  -2.75829e-010 5.07641e-011 -5.51782e-011
257
root  12.6211 30.4049 -1.91656 -159.292 -80.4791 144.281
RightUpLeg  -26.5091 -6.29838 -34.4744
RightLeg  66.1436 4.33856 10.0942
RightFoot  -17.3208 1.30432 26.7722
RightToes  -5.28226e-011 1.30204e-014 -6.03759e-014
Spine  34.234 -3.43999 9.42687
Spine1  2.1067 2.73877 -18.2451
HEad  -20.7765 6.70537 -6.36156
LeftShoulder1  0.762152 -0.140305 -14.0562
LeftArm  -9.4272 4.69198 -24.9113
LeftForeArm  -38.7883 -26.1382 -7.08149
LeftHand  -0.344063 3.83769 25.3146
RightShoulder  1.51476 3.25304 15.7266
RightArm  -35.1353 -35.9516 51.2946
RightForeArm  -30.097 45.9676 13.3197
RightHand  -1.07168 -0.705797 -26.2931
LeftUpLeg  -4.54645 -4.72097 26.8829
LeftLeg  56.5355 0.718752 1.80156
LeftFoot  -24.4262 -4.66026 -40.4727
LeftToes  -2.75829e-010 5.07641e-011 -5.51782e-011
258
root  12.4194 31.9011 -2.39549 -131.778 -80.7711 118.24
RightUpLeg  -22.577 -7.15366 -35.8561
RightLeg  60.096 3.74165 6.55665
RightFoot  -15.8629 0.972173 26.9584
RightToes  -5.28226e-011 1.30204e-014 -6.03759e-014
Spine  33.3788 -3.11109 14.1442
Spine1  0.799445 5.26769 -23.4237
HEad  -17.4984 -3.21817 -6.98577
LeftShoulder1  0.274139 2.26324 -15.6243
LeftArm  -11.3104 -1.87382 -31.5277
LeftForeArm  -36.4199 -25.5706 -7.08817
LeftHand  -0.265643 4.23621 26.5392
RightShoulder  1.73852 4.49726 14.8955
RightArm  -33.2693 -39.2902 49.9353
RightForeArm  -35.8744 31.6183 8.48163
RightHand  -1.16196 0.0890735 -24.4117
LeftUpLeg  -6.74359 -1.21898 25.8184
LeftLeg  51.832 -2.10955 -2.42292
LeftFoot  -11.5939 -0.0768572 -41.9074
LeftToes  -2.75829e-010 5.07641e-011 -5.51782e-011
259
root  12.3461 33.5558 -2.70226 -87.0141 -80.9637 75.3035
RightUpLeg  -15.7654 -9.44714 -36.8417
RightLeg  51.6748 2.56901 3.12584
RightFoot  -12.6633 0.24223 28.4207
RightToes  -5.28226e-011 1.30204e-014 -6.03759e-014
Spine  32.3976 -2.03781 18.6872
Spine1  -1.71758 7.10902 -23.3607
HEad  -12.594 -15.4504 -7.94119
LeftShoulder1  -0.100109 3.92576 -17.9761
LeftArm  -10.0762 -8.33582 -40.7992
LeftForeArm  -39.9532 -21.6847 -7.04368
LeftHand  -0.12614 4.87483 28.08
RightShoulder  2.00548 4.88049 17.4012
RightArm  -28.1543 -45.5139 42.5666
RightForeArm  -40.6406 22.903 6.64612
RightHand  -1.04258 0.0858913 -21.9847
LeftUpLeg  -14.6009 0.74861 25.4793
LeftLeg  50.3101 -5.39719 -6.50738
LeftFoot  8.81913 7.22435 -39.577
LeftToes  -2.75829e-010 5.07641e-011 -5.51782e-011
260
root  12.2372 35.0959 -2.93908 -57.1851 -78.0145 46.9432
RightUpLeg  -9.25737 -8.87991 -36.5256
RightLeg  42.8313 -0.221058 -0.47858
RightFoot  -8.5174 -0.812642 29.9432
RightToes  -5.28226e-011 1.30204e-014 -6.03759e-014
Spine  32.0793 0.0238745 21.4541
Spine1  -5.62161 8.62996 -20.7051
HEad  -8.12934 -25.3668 -9.46998
LeftShoulder1  -0.0612055 3.73942 -18.1652
LeftArm  -10.0966 -7.62042 -50.679
LeftForeArm  -40.8876 -19.0104 -7.86939
LeftHand  -0.204508 4.50902 26.9515
RightShoulder  1.92294 3.6269 20.6361
RightArm  -20.2348 -49.3695 30.5423
RightForeArm  -42.4716 17.2184 6.52188
RightHand  -0.901977 -0.243193 -20.2883
LeftUpLeg  -21.8418 2.97504 25.1276
LeftLeg  48.463 -5.60674 -6.36965
LeftFoot  23.515 11.9688 -37.3486
LeftToes  -2.75829e-010 5.07641e-011 -5.51782e-011
261
root  12.0916 36.642 -3.51237 -53.5311 -75.7341 44.9484
RightUpLeg  -6.18745 -5.76 -34.9186
RightLeg  35.3817 -5.28733 -4.28196
RightFoot  -3.18469 -2.15884 29.4962
RightToes  -5.28226e-011 1.30204e-014 -6.03759e-014
Spine  31.8199 2.06084 17.543
Spine1  -8.04346 8.2027 -15.0978
HEad  -8.11568 -25.1598 -11.0953
LeftShoulder1  0.237374 2.49921 -16.797
LeftArm  -11.7005 1.99843 -55.5816
LeftForeArm  -41.1197 -21.9932 -7.28843
LeftHand  -0.439729 3.3044 24.1954
RightShoulder  1.38317 1.69571 20.2031
RightArm  -16.7007 -43.1254 22.3188
RightForeArm  -39.2321 11.5747 7.07541
RightHand  -0.875034 -0.327875 -19.9927
LeftUpLeg  -24.141 7.22462 24.8872
LeftLeg  42.2749 -3.69246 -3.21224
LeftFoot  23.6975 12.4542 -38.7318
LeftToes  -2.75829e-010 5.07641e-011 -5.51782e-011
262
root  11.9467 38.1226 -4.17299 -56.8257 -75.4894 50.5801
RightUpLeg  -5.94724 -4.51251 -33.0502
RightLeg  28.9575 -10.1031 -6.24414
RightFoot  3.78459 -3.63027 27.1252
RightToes  -5.28226e-011 1.30204e-014 -6.03759e-014
Spine  29.9325 2.09956 9.54833
Spine1  -7.55549 4.98303 -7.00449
HEad  -12.0886 -15.8118 -12.1734
LeftShoulder1  0.538861 1.37705 -18.5555
LeftArm  -15.1717 13.8935 -52.2903
LeftForeArm  -41.0619 -26.8442 -7.27661
LeftHand  -0.524669 2.77805 23.0853
RightShoulder  1.18386 1.22053 18.6079
RightArm  -19.2965 -29.8113 20.9861
RightForeArm  -34.6955 9.353 7.08603
RightHand  -0.968815 0.138724 -20.2991
LeftUpLeg  -22.6314 11.0367 25.5942
LeftLeg  31.334 -2.90518 -1.54783
LeftFoot  17.3871 10.7786 -40.7905
LeftToes  -2.75829e-010 5.07641e-011 -5.51782e-011
263
root  11.8081 39.3339 -4.63079 -55.6802 -75.5823 51.9099
RightUpLeg  -5.42284 -6.71082 -31.5623
RightLeg  22.1885 -12.605 -5.84295
RightFoot  10.9046 -4.93752 25.0912
RightToes  -5.28226e-011 1.30204e-014 -6.03759e-014
Spine  27.4682 0.613743 5.73564
Spine1  -6.67357 1.97957 -3.66519
HEad  -14.2158 -10.002 -12.2608
LeftShoulder1  0.780642 0.82162 -22.9375
LeftArm  -9.73983 17.2308 -44.6281
LeftForeArm  -44.4712 -24.4604 -7.91874
LeftHand  -0.372018 3.57649 23.5224
RightShoulder  1.73486 3.09511 19.9152
RightArm  -19.3222 -24.449 20.8602
RightForeArm  -35.5134 13.8076 7.07229
RightHand  -1.02038 0.679215 -19.4944
LeftUpLeg  -21.8987 7.98705 27.3078
LeftLeg  20.9959 -1.14728 -0.192854
LeftFoot  17.215 8.76656 -34.2048
LeftToes  -2.75829e-010 5.07641e-011 -5.51782e-011
